<svg xmlns="http://www.w3.org/2000/svg" xml:space="preserve" style="enable-background:new 0 0 512.035 512.035" viewBox="0 0 512.035 512.035"><path d="M255 7.551 50.2 255.017 255 502.484h204.8L255 255.017 459.8 7.551z" style="fill:#63d3fd" transform="translate(1 1)"/><path d="M255 255.017 502.467 7.551H459.8z" style="fill:#3db9f9" transform="translate(1 1)"/><path d="M7.533 255.017 255 502.484h51.2H255L50.2 255.017 255 7.551z" style="fill:#fff" transform="translate(1 1)"/><path d="M314.733 502.484h187.734L255 255.017l204.8 247.467z" style="fill:#3db9f9" transform="translate(1 1)"/><path d="M503.467 512.017H256c-2.56 0-4.267-.853-5.973-2.56L2.56 261.991c-3.413-3.413-3.413-8.533 0-11.947L250.027 2.577C251.734.87 253.44.017 256 .017h247.467c3.413 0 6.827 1.707 7.68 5.12 1.707 3.413.853 6.827-1.707 9.387l-93.867 93.867c-3.413 3.413-8.533 3.413-11.947 0-3.413-3.413-3.413-8.533 0-11.947l79.36-79.36H259.413L20.48 256.017 259.413 494.95h223.573l-232.96-232.96c-3.413-3.413-3.413-8.533 0-11.947l102.4-102.4c3.413-3.413 8.533-3.413 11.947 0 3.413 3.413 3.413 8.533 0 11.947l-96.427 96.427L509.44 497.511c2.56 2.56 3.413 5.973 1.707 9.387-.854 3.413-4.267 5.119-7.68 5.119z"/><path d="M392.533 128.017c0-5.12-3.413-8.533-8.533-8.533s-8.533 3.413-8.533 8.533 3.413 8.533 8.533 8.533 8.533-3.413 8.533-8.533"/></svg>